<mxfile host="app.diagrams.net" modified="2024-03-12T13:35:31.628Z" agent="Mozilla/5.0 (Windows NT 10.0; Win64; x64) AppleWebKit/537.36 (KHTML, like Gecko) Chrome/121.0.0.0 Safari/537.36" etag="C8ssWpZ4RZToB1u59hYd" version="22.1.22" type="device">
  <diagram name="Trang-1" id="D_95qFLyVV7D5gcyKjf1">
    <mxGraphModel dx="1184" dy="634" grid="1" gridSize="10" guides="1" tooltips="1" connect="1" arrows="1" fold="1" page="0" pageScale="1" pageWidth="827" pageHeight="1169" math="0" shadow="0">
      <root>
        <mxCell id="0" />
        <mxCell id="1" parent="0" />
        <mxCell id="QYnSdsdfTlSG4ymCOoCi-1" value="Ứng viên" style="shape=umlActor;verticalLabelPosition=bottom;verticalAlign=top;html=1;outlineConnect=0;" vertex="1" parent="1">
          <mxGeometry x="130" y="220" width="30" height="60" as="geometry" />
        </mxCell>
        <mxCell id="QYnSdsdfTlSG4ymCOoCi-7" value="Upload thông tin" style="ellipse;whiteSpace=wrap;html=1;" vertex="1" parent="1">
          <mxGeometry x="550" y="370" width="120" height="50" as="geometry" />
        </mxCell>
        <mxCell id="QYnSdsdfTlSG4ymCOoCi-8" value="Đăng ký" style="ellipse;whiteSpace=wrap;html=1;" vertex="1" parent="1">
          <mxGeometry x="294" y="20" width="120" height="50" as="geometry" />
        </mxCell>
        <mxCell id="QYnSdsdfTlSG4ymCOoCi-9" value="Xem thông tin nhà tuyển dụng" style="ellipse;whiteSpace=wrap;html=1;" vertex="1" parent="1">
          <mxGeometry x="294" y="230" width="120" height="50" as="geometry" />
        </mxCell>
        <mxCell id="QYnSdsdfTlSG4ymCOoCi-10" value="Upload CV" style="ellipse;whiteSpace=wrap;html=1;" vertex="1" parent="1">
          <mxGeometry x="550" y="440" width="120" height="50" as="geometry" />
        </mxCell>
        <mxCell id="QYnSdsdfTlSG4ymCOoCi-11" value="Đăng nhập" style="ellipse;whiteSpace=wrap;html=1;" vertex="1" parent="1">
          <mxGeometry x="294" y="90" width="120" height="50" as="geometry" />
        </mxCell>
        <mxCell id="QYnSdsdfTlSG4ymCOoCi-12" value="Xem tin tuyển dụng" style="ellipse;whiteSpace=wrap;html=1;" vertex="1" parent="1">
          <mxGeometry x="294" y="160" width="120" height="50" as="geometry" />
        </mxCell>
        <mxCell id="QYnSdsdfTlSG4ymCOoCi-18" value="" style="edgeStyle=orthogonalEdgeStyle;rounded=0;orthogonalLoop=1;jettySize=auto;html=1;" edge="1" parent="1" source="QYnSdsdfTlSG4ymCOoCi-13" target="QYnSdsdfTlSG4ymCOoCi-10">
          <mxGeometry relative="1" as="geometry" />
        </mxCell>
        <mxCell id="QYnSdsdfTlSG4ymCOoCi-29" value="&amp;lt;&amp;lt;extend&amp;gt;&amp;gt;" style="edgeLabel;html=1;align=center;verticalAlign=middle;resizable=0;points=[];" vertex="1" connectable="0" parent="QYnSdsdfTlSG4ymCOoCi-18">
          <mxGeometry x="-0.0735" y="2" relative="1" as="geometry">
            <mxPoint as="offset" />
          </mxGeometry>
        </mxCell>
        <mxCell id="QYnSdsdfTlSG4ymCOoCi-13" value="Ứng tuyển trực tuyến" style="ellipse;whiteSpace=wrap;html=1;" vertex="1" parent="1">
          <mxGeometry x="294" y="440" width="120" height="50" as="geometry" />
        </mxCell>
        <mxCell id="QYnSdsdfTlSG4ymCOoCi-17" value="" style="edgeStyle=orthogonalEdgeStyle;rounded=0;orthogonalLoop=1;jettySize=auto;html=1;" edge="1" parent="1" source="QYnSdsdfTlSG4ymCOoCi-14" target="QYnSdsdfTlSG4ymCOoCi-7">
          <mxGeometry relative="1" as="geometry" />
        </mxCell>
        <mxCell id="QYnSdsdfTlSG4ymCOoCi-28" value="&amp;lt;&amp;lt;include&amp;gt;&amp;gt;" style="edgeLabel;html=1;align=center;verticalAlign=middle;resizable=0;points=[];" vertex="1" connectable="0" parent="QYnSdsdfTlSG4ymCOoCi-17">
          <mxGeometry x="-0.098" y="1" relative="1" as="geometry">
            <mxPoint as="offset" />
          </mxGeometry>
        </mxCell>
        <mxCell id="QYnSdsdfTlSG4ymCOoCi-14" value="Xây dựng hồ sơ cá nhân" style="ellipse;whiteSpace=wrap;html=1;" vertex="1" parent="1">
          <mxGeometry x="294" y="370" width="120" height="50" as="geometry" />
        </mxCell>
        <mxCell id="QYnSdsdfTlSG4ymCOoCi-15" value="Lưu thông tin tuyển dụng quan tâm" style="ellipse;whiteSpace=wrap;html=1;" vertex="1" parent="1">
          <mxGeometry x="294" y="300" width="120" height="50" as="geometry" />
        </mxCell>
        <mxCell id="QYnSdsdfTlSG4ymCOoCi-19" value="" style="endArrow=classic;html=1;rounded=0;exitX=1;exitY=0.3333333333333333;exitDx=0;exitDy=0;exitPerimeter=0;entryX=0;entryY=0.5;entryDx=0;entryDy=0;" edge="1" parent="1" source="QYnSdsdfTlSG4ymCOoCi-1" target="QYnSdsdfTlSG4ymCOoCi-8">
          <mxGeometry width="50" height="50" relative="1" as="geometry">
            <mxPoint x="390" y="310" as="sourcePoint" />
            <mxPoint x="440" y="260" as="targetPoint" />
          </mxGeometry>
        </mxCell>
        <mxCell id="QYnSdsdfTlSG4ymCOoCi-20" value="" style="endArrow=classic;html=1;rounded=0;entryX=0;entryY=0.5;entryDx=0;entryDy=0;" edge="1" parent="1" target="QYnSdsdfTlSG4ymCOoCi-11">
          <mxGeometry width="50" height="50" relative="1" as="geometry">
            <mxPoint x="160" y="240" as="sourcePoint" />
            <mxPoint x="304" y="105" as="targetPoint" />
          </mxGeometry>
        </mxCell>
        <mxCell id="QYnSdsdfTlSG4ymCOoCi-21" value="" style="endArrow=classic;html=1;rounded=0;entryX=0;entryY=0.5;entryDx=0;entryDy=0;" edge="1" parent="1" target="QYnSdsdfTlSG4ymCOoCi-12">
          <mxGeometry width="50" height="50" relative="1" as="geometry">
            <mxPoint x="160" y="240" as="sourcePoint" />
            <mxPoint x="304" y="165" as="targetPoint" />
          </mxGeometry>
        </mxCell>
        <mxCell id="QYnSdsdfTlSG4ymCOoCi-22" value="" style="endArrow=classic;html=1;rounded=0;entryX=0;entryY=0.5;entryDx=0;entryDy=0;exitX=1;exitY=0.3333333333333333;exitDx=0;exitDy=0;exitPerimeter=0;" edge="1" parent="1" source="QYnSdsdfTlSG4ymCOoCi-1" target="QYnSdsdfTlSG4ymCOoCi-9">
          <mxGeometry width="50" height="50" relative="1" as="geometry">
            <mxPoint x="170" y="250" as="sourcePoint" />
            <mxPoint x="304" y="225" as="targetPoint" />
          </mxGeometry>
        </mxCell>
        <mxCell id="QYnSdsdfTlSG4ymCOoCi-24" value="" style="endArrow=classic;html=1;rounded=0;entryX=0;entryY=0.5;entryDx=0;entryDy=0;exitX=1;exitY=0.3333333333333333;exitDx=0;exitDy=0;exitPerimeter=0;" edge="1" parent="1" source="QYnSdsdfTlSG4ymCOoCi-1" target="QYnSdsdfTlSG4ymCOoCi-15">
          <mxGeometry width="50" height="50" relative="1" as="geometry">
            <mxPoint x="170" y="250" as="sourcePoint" />
            <mxPoint x="304" y="285" as="targetPoint" />
          </mxGeometry>
        </mxCell>
        <mxCell id="QYnSdsdfTlSG4ymCOoCi-25" value="" style="endArrow=classic;html=1;rounded=0;entryX=0;entryY=0.5;entryDx=0;entryDy=0;exitX=1;exitY=0.3333333333333333;exitDx=0;exitDy=0;exitPerimeter=0;" edge="1" parent="1" source="QYnSdsdfTlSG4ymCOoCi-1" target="QYnSdsdfTlSG4ymCOoCi-14">
          <mxGeometry width="50" height="50" relative="1" as="geometry">
            <mxPoint x="170" y="250" as="sourcePoint" />
            <mxPoint x="304" y="345" as="targetPoint" />
          </mxGeometry>
        </mxCell>
        <mxCell id="QYnSdsdfTlSG4ymCOoCi-26" value="" style="endArrow=classic;html=1;rounded=0;entryX=0.015;entryY=0.366;entryDx=0;entryDy=0;exitX=1;exitY=0.3333333333333333;exitDx=0;exitDy=0;exitPerimeter=0;entryPerimeter=0;" edge="1" parent="1" source="QYnSdsdfTlSG4ymCOoCi-1" target="QYnSdsdfTlSG4ymCOoCi-13">
          <mxGeometry width="50" height="50" relative="1" as="geometry">
            <mxPoint x="170" y="250" as="sourcePoint" />
            <mxPoint x="304" y="405" as="targetPoint" />
          </mxGeometry>
        </mxCell>
        <mxCell id="QYnSdsdfTlSG4ymCOoCi-30" value="Nhà tuyển dụng" style="shape=umlActor;verticalLabelPosition=bottom;verticalAlign=top;html=1;outlineConnect=0;" vertex="1" parent="1">
          <mxGeometry x="770" y="220" width="30" height="60" as="geometry" />
        </mxCell>
        <mxCell id="QYnSdsdfTlSG4ymCOoCi-32" value="Đăng ký" style="ellipse;whiteSpace=wrap;html=1;" vertex="1" parent="1">
          <mxGeometry x="934" y="20" width="120" height="50" as="geometry" />
        </mxCell>
        <mxCell id="QYnSdsdfTlSG4ymCOoCi-33" value="Thông báo phỏng vấn" style="ellipse;whiteSpace=wrap;html=1;" vertex="1" parent="1">
          <mxGeometry x="934" y="230" width="120" height="50" as="geometry" />
        </mxCell>
        <mxCell id="QYnSdsdfTlSG4ymCOoCi-35" value="Đăng nhập" style="ellipse;whiteSpace=wrap;html=1;" vertex="1" parent="1">
          <mxGeometry x="934" y="90" width="120" height="50" as="geometry" />
        </mxCell>
        <mxCell id="QYnSdsdfTlSG4ymCOoCi-36" value="Quản lý bài tuyển dụng" style="ellipse;whiteSpace=wrap;html=1;" vertex="1" parent="1">
          <mxGeometry x="934" y="160" width="120" height="50" as="geometry" />
        </mxCell>
        <mxCell id="QYnSdsdfTlSG4ymCOoCi-43" value="Xây dựng hồ sơ doanh nghiệp" style="ellipse;whiteSpace=wrap;html=1;" vertex="1" parent="1">
          <mxGeometry x="934" y="300" width="120" height="50" as="geometry" />
        </mxCell>
        <mxCell id="QYnSdsdfTlSG4ymCOoCi-44" value="" style="endArrow=classic;html=1;rounded=0;exitX=1;exitY=0.3333333333333333;exitDx=0;exitDy=0;exitPerimeter=0;entryX=0;entryY=0.5;entryDx=0;entryDy=0;" edge="1" source="QYnSdsdfTlSG4ymCOoCi-30" target="QYnSdsdfTlSG4ymCOoCi-32" parent="1">
          <mxGeometry width="50" height="50" relative="1" as="geometry">
            <mxPoint x="1030" y="310" as="sourcePoint" />
            <mxPoint x="1080" y="260" as="targetPoint" />
          </mxGeometry>
        </mxCell>
        <mxCell id="QYnSdsdfTlSG4ymCOoCi-45" value="" style="endArrow=classic;html=1;rounded=0;entryX=0;entryY=0.5;entryDx=0;entryDy=0;" edge="1" target="QYnSdsdfTlSG4ymCOoCi-35" parent="1">
          <mxGeometry width="50" height="50" relative="1" as="geometry">
            <mxPoint x="800" y="240" as="sourcePoint" />
            <mxPoint x="944" y="105" as="targetPoint" />
          </mxGeometry>
        </mxCell>
        <mxCell id="QYnSdsdfTlSG4ymCOoCi-46" value="" style="endArrow=classic;html=1;rounded=0;entryX=0;entryY=0.5;entryDx=0;entryDy=0;" edge="1" target="QYnSdsdfTlSG4ymCOoCi-36" parent="1">
          <mxGeometry width="50" height="50" relative="1" as="geometry">
            <mxPoint x="800" y="240" as="sourcePoint" />
            <mxPoint x="944" y="165" as="targetPoint" />
          </mxGeometry>
        </mxCell>
        <mxCell id="QYnSdsdfTlSG4ymCOoCi-47" value="" style="endArrow=classic;html=1;rounded=0;entryX=0;entryY=0.5;entryDx=0;entryDy=0;exitX=1;exitY=0.3333333333333333;exitDx=0;exitDy=0;exitPerimeter=0;" edge="1" source="QYnSdsdfTlSG4ymCOoCi-30" target="QYnSdsdfTlSG4ymCOoCi-33" parent="1">
          <mxGeometry width="50" height="50" relative="1" as="geometry">
            <mxPoint x="810" y="250" as="sourcePoint" />
            <mxPoint x="944" y="225" as="targetPoint" />
          </mxGeometry>
        </mxCell>
        <mxCell id="QYnSdsdfTlSG4ymCOoCi-48" value="" style="endArrow=classic;html=1;rounded=0;entryX=0;entryY=0.5;entryDx=0;entryDy=0;exitX=1;exitY=0.3333333333333333;exitDx=0;exitDy=0;exitPerimeter=0;" edge="1" source="QYnSdsdfTlSG4ymCOoCi-30" target="QYnSdsdfTlSG4ymCOoCi-43" parent="1">
          <mxGeometry width="50" height="50" relative="1" as="geometry">
            <mxPoint x="810" y="250" as="sourcePoint" />
            <mxPoint x="944" y="285" as="targetPoint" />
          </mxGeometry>
        </mxCell>
        <mxCell id="QYnSdsdfTlSG4ymCOoCi-51" value="Quản trị viên" style="shape=umlActor;verticalLabelPosition=bottom;verticalAlign=top;html=1;outlineConnect=0;" vertex="1" parent="1">
          <mxGeometry x="1150" y="190" width="30" height="60" as="geometry" />
        </mxCell>
        <mxCell id="QYnSdsdfTlSG4ymCOoCi-52" value="Quản lý danh sách ứng viên" style="ellipse;whiteSpace=wrap;html=1;" vertex="1" parent="1">
          <mxGeometry x="1314" width="120" height="50" as="geometry" />
        </mxCell>
        <mxCell id="QYnSdsdfTlSG4ymCOoCi-53" value="Xóa tin tuyển dụng vi phạm" style="ellipse;whiteSpace=wrap;html=1;" vertex="1" parent="1">
          <mxGeometry x="1314" y="240" width="120" height="50" as="geometry" />
        </mxCell>
        <mxCell id="QYnSdsdfTlSG4ymCOoCi-54" value="Quản lý danh sách nhà tuyển dụng" style="ellipse;whiteSpace=wrap;html=1;" vertex="1" parent="1">
          <mxGeometry x="1314" y="80" width="120" height="50" as="geometry" />
        </mxCell>
        <mxCell id="QYnSdsdfTlSG4ymCOoCi-55" value="Duyệt tin tuyển dụng" style="ellipse;whiteSpace=wrap;html=1;" vertex="1" parent="1">
          <mxGeometry x="1314" y="160" width="120" height="50" as="geometry" />
        </mxCell>
        <mxCell id="QYnSdsdfTlSG4ymCOoCi-57" value="" style="endArrow=classic;html=1;rounded=0;exitX=1;exitY=0.3333333333333333;exitDx=0;exitDy=0;exitPerimeter=0;entryX=0;entryY=0.5;entryDx=0;entryDy=0;" edge="1" source="QYnSdsdfTlSG4ymCOoCi-51" target="QYnSdsdfTlSG4ymCOoCi-52" parent="1">
          <mxGeometry width="50" height="50" relative="1" as="geometry">
            <mxPoint x="1410" y="280" as="sourcePoint" />
            <mxPoint x="1460" y="230" as="targetPoint" />
          </mxGeometry>
        </mxCell>
        <mxCell id="QYnSdsdfTlSG4ymCOoCi-58" value="" style="endArrow=classic;html=1;rounded=0;entryX=0;entryY=0.5;entryDx=0;entryDy=0;" edge="1" target="QYnSdsdfTlSG4ymCOoCi-54" parent="1">
          <mxGeometry width="50" height="50" relative="1" as="geometry">
            <mxPoint x="1180" y="210" as="sourcePoint" />
            <mxPoint x="1324" y="75" as="targetPoint" />
          </mxGeometry>
        </mxCell>
        <mxCell id="QYnSdsdfTlSG4ymCOoCi-59" value="" style="endArrow=classic;html=1;rounded=0;entryX=0;entryY=0.5;entryDx=0;entryDy=0;" edge="1" target="QYnSdsdfTlSG4ymCOoCi-55" parent="1">
          <mxGeometry width="50" height="50" relative="1" as="geometry">
            <mxPoint x="1180" y="210" as="sourcePoint" />
            <mxPoint x="1324" y="135" as="targetPoint" />
          </mxGeometry>
        </mxCell>
        <mxCell id="QYnSdsdfTlSG4ymCOoCi-60" value="" style="endArrow=classic;html=1;rounded=0;entryX=0;entryY=0.5;entryDx=0;entryDy=0;exitX=1;exitY=0.3333333333333333;exitDx=0;exitDy=0;exitPerimeter=0;" edge="1" source="QYnSdsdfTlSG4ymCOoCi-51" target="QYnSdsdfTlSG4ymCOoCi-53" parent="1">
          <mxGeometry width="50" height="50" relative="1" as="geometry">
            <mxPoint x="1190" y="220" as="sourcePoint" />
            <mxPoint x="1324" y="195" as="targetPoint" />
          </mxGeometry>
        </mxCell>
      </root>
    </mxGraphModel>
  </diagram>
</mxfile>
